<svg width="362" height="55" viewBox="0 0 362 55" fill="none" xmlns="http://www.w3.org/2000/svg">
<path d="M155.901 3.71C154.821 5.84 153.711 7.97 152.541 10.07C151.221 8.12 149.961 6.14 148.731 4.13C147.261 1.64 143.361 3.89 144.861 6.38C146.481 9.11 148.221 11.78 150.051 14.36C148.881 16.31 147.681 18.23 146.451 20.12C144.861 22.55 148.761 24.8 150.321 22.4C151.221 21.05 152.091 19.67 152.931 18.29C153.951 19.61 154.971 20.9 156.021 22.16C157.851 24.41 161.031 21.2 159.201 18.98C157.881 17.42 156.621 15.77 155.421 14.12C156.951 11.45 158.421 8.72 159.801 5.96C161.061 3.38 157.191 1.1 155.901 3.71ZM178.256 4.7C175.796 0.649998 169.376 0.139999 166.166 3.41C163.016 6.11 162.566 12.38 163.466 15.89C164.096 18.29 165.686 20.81 168.146 21.59C170.696 22.43 173.516 21.5 175.526 19.85C177.566 18.14 178.826 15.65 179.246 13.04C179.636 10.46 179.666 7.01 178.256 4.7ZM172.796 16.37C172.706 16.43 172.646 16.49 172.556 16.58C171.596 17.39 170.066 17.72 169.046 16.94C168.386 16.46 168.086 15.65 167.876 14.87C167.576 13.58 167.516 12.23 167.666 10.91C167.816 9.71 168.116 8.18 168.806 7.19C169.436 6.32 170.486 5.78 171.566 5.75C173.426 5.72 174.626 6.98 174.836 8.72C175.196 11.36 174.806 14.45 172.796 16.37ZM193.87 3.71C192.79 5.84 191.68 7.97 190.51 10.07C189.19 8.12 187.93 6.14 186.7 4.13C185.23 1.64 181.33 3.89 182.83 6.38C184.45 9.11 186.19 11.78 188.02 14.36C186.85 16.31 185.65 18.23 184.42 20.12C182.83 22.55 186.73 24.8 188.29 22.4C189.19 21.05 190.06 19.67 190.9 18.29C191.92 19.61 192.94 20.9 193.99 22.16C195.82 24.41 199 21.2 197.17 18.98C195.85 17.42 194.59 15.77 193.39 14.12C194.92 11.45 196.39 8.72 197.77 5.96C199.03 3.38 195.16 1.1 193.87 3.71ZM216.225 4.7C213.765 0.649998 207.345 0.139999 204.135 3.41C200.985 6.11 200.535 12.38 201.435 15.89C202.065 18.29 203.655 20.81 206.115 21.59C208.665 22.43 211.485 21.5 213.495 19.85C215.535 18.14 216.795 15.65 217.215 13.04C217.605 10.46 217.635 7.01 216.225 4.7ZM210.765 16.37C210.675 16.43 210.615 16.49 210.525 16.58C209.565 17.39 208.035 17.72 207.015 16.94C206.355 16.46 206.055 15.65 205.845 14.87C205.545 13.58 205.485 12.23 205.635 10.91C205.785 9.71 206.085 8.18 206.775 7.19C207.405 6.32 208.455 5.78 209.535 5.75C211.395 5.72 212.595 6.98 212.805 8.72C213.165 11.36 212.775 14.45 210.765 16.37Z" fill="#343232"/>
</svg>
